<svg 
 xmlns="http://www.w3.org/2000/svg"
 xmlns:xlink="http://www.w3.org/1999/xlink"
 width="15px" height="15px">
<path fill-rule="evenodd"  fill="rgb(255, 255, 255)"
 d="M14.425,4.592 C14.248,4.174 14.028,3.769 13.772,3.390 C13.517,3.017 13.227,2.666 12.906,2.345 C12.587,2.027 12.233,1.738 11.858,1.484 C11.479,1.228 11.073,1.009 10.652,0.832 C10.226,0.654 9.777,0.513 9.320,0.422 C8.854,0.324 8.374,0.277 7.895,0.277 C7.413,0.277 6.933,0.324 6.468,0.422 C6.012,0.513 5.563,0.654 5.134,0.832 C4.714,1.009 4.308,1.228 3.929,1.484 C3.556,1.738 3.202,2.027 2.880,2.345 C2.560,2.666 2.268,3.017 2.016,3.390 C1.761,3.769 1.540,4.174 1.361,4.592 C1.181,5.017 1.042,5.466 0.948,5.920 C0.853,6.383 0.805,6.863 0.805,7.339 C0.805,7.820 0.853,8.299 0.948,8.763 C1.042,9.216 1.181,9.664 1.361,10.092 C1.540,10.508 1.761,10.914 2.016,11.291 C2.268,11.666 2.560,12.016 2.880,12.336 C3.202,12.656 3.556,12.945 3.929,13.195 C4.308,13.453 4.714,13.671 5.134,13.849 C5.563,14.029 6.012,14.168 6.468,14.261 C6.933,14.355 7.413,14.404 7.895,14.404 C8.374,14.404 8.854,14.355 9.320,14.261 C9.777,14.168 10.226,14.029 10.652,13.849 C11.073,13.671 11.479,13.453 11.858,13.195 C12.233,12.945 12.587,12.656 12.906,12.336 C13.227,12.016 13.517,11.666 13.772,11.291 C14.028,10.914 14.248,10.508 14.425,10.092 C14.606,9.664 14.747,9.216 14.839,8.763 C14.936,8.299 14.984,7.820 14.984,7.339 C14.984,6.863 14.936,6.383 14.839,5.920 C14.747,5.466 14.606,5.017 14.425,4.592 ZM7.893,1.308 C9.427,1.308 10.827,1.877 11.893,2.814 C11.876,2.838 11.015,4.144 8.730,4.998 C7.695,3.103 6.558,1.597 6.468,1.478 C6.925,1.369 7.403,1.308 7.893,1.308 ZM6.444,1.484 L6.442,1.486 C6.442,1.486 6.434,1.488 6.425,1.488 C6.430,1.488 6.436,1.486 6.444,1.484 ZM5.310,1.887 C5.392,1.992 6.511,3.505 7.558,5.361 C4.652,6.130 2.129,6.101 1.969,6.097 C2.362,4.228 3.623,2.680 5.310,1.887 ZM3.389,11.369 C3.390,11.371 3.391,11.371 3.391,11.371 C3.391,11.371 3.390,11.371 3.389,11.369 ZM3.388,11.369 C2.425,10.300 1.839,8.891 1.839,7.339 C1.839,7.277 1.843,7.212 1.845,7.150 C1.952,7.152 4.942,7.220 8.060,6.291 C8.233,6.628 8.399,6.972 8.553,7.316 C8.471,7.339 8.393,7.363 8.313,7.386 C5.048,8.439 3.390,11.365 3.388,11.369 ZM4.173,12.098 C4.173,12.098 4.118,12.054 4.038,11.992 C4.081,12.027 4.132,12.052 4.177,12.088 L4.173,12.098 ZM7.895,13.373 C6.489,13.373 5.204,12.886 4.177,12.088 C4.222,11.992 5.403,9.548 8.924,8.328 C8.938,8.324 8.949,8.320 8.964,8.314 C9.815,10.521 10.169,12.367 10.257,12.894 C9.532,13.203 8.731,13.373 7.895,13.373 ZM11.276,12.343 C11.216,11.980 10.893,10.211 10.100,8.035 C12.054,7.722 13.747,8.257 13.871,8.299 C13.602,9.978 12.637,11.429 11.276,12.343 ZM9.729,7.084 C9.687,6.980 9.644,6.877 9.599,6.771 C9.472,6.476 9.339,6.184 9.196,5.896 C11.589,4.926 12.559,3.525 12.569,3.510 C13.420,4.537 13.932,5.849 13.946,7.279 C13.858,7.261 11.810,6.824 9.729,7.084 Z"/>
</svg>