<svg 
 xmlns="http://www.w3.org/2000/svg"
 xmlns:xlink="http://www.w3.org/1999/xlink"
 width="16px" height="15px">
<path fill-rule="evenodd"  fill="rgb(255, 255, 255)"
 d="M13.155,3.509 L13.155,5.430 L12.191,5.430 L12.191,3.509 L10.265,3.509 L10.265,2.550 L12.191,2.550 L12.191,0.628 L13.155,0.628 L13.155,2.550 L15.085,2.550 L15.085,3.509 L13.155,3.509 ZM7.897,1.413 C8.673,1.854 9.083,2.764 9.083,3.766 C9.083,4.688 8.571,5.428 7.850,5.993 C7.143,6.542 7.011,6.772 7.011,7.237 C7.011,7.635 7.852,8.231 8.239,8.520 C9.589,9.528 9.862,10.163 9.862,11.424 C9.862,12.999 8.161,14.563 5.393,14.563 C2.965,14.563 0.915,13.579 0.915,12.006 C0.915,10.407 2.616,8.743 5.044,8.743 C5.308,8.743 5.551,8.737 5.802,8.737 C5.469,8.415 5.201,8.135 5.201,7.649 C5.201,7.362 5.293,7.087 5.423,6.839 C5.290,6.848 5.155,6.854 5.019,6.854 C3.022,6.854 1.860,5.460 1.860,3.708 C1.860,1.993 3.630,0.436 5.750,0.436 L9.929,0.436 L8.995,1.413 L7.897,1.413 ZM5.594,9.235 C3.915,9.215 2.493,10.292 2.493,11.538 C2.493,12.809 3.705,13.866 5.384,13.866 C7.743,13.866 8.565,12.874 8.565,11.602 C8.565,11.448 8.546,11.300 8.512,11.155 C8.327,10.434 7.593,10.040 6.681,9.409 C6.351,9.302 5.985,9.239 5.594,9.235 ZM7.404,3.831 C7.210,2.356 6.247,1.147 5.120,1.112 C3.994,1.079 3.237,2.208 3.434,3.682 C3.627,5.155 4.697,6.184 5.824,6.219 C6.950,6.253 7.599,5.304 7.404,3.831 Z"/>
</svg>