<svg 
 xmlns="http://www.w3.org/2000/svg"
 xmlns:xlink="http://www.w3.org/1999/xlink"
 width="15px" height="12px">
<path fill-rule="evenodd"  fill="rgb(255, 255, 255)"
 d="M0.833,10.164 C2.120,10.986 3.647,11.465 5.292,11.465 C10.642,11.465 13.569,7.049 13.569,3.218 C13.569,3.094 13.566,2.968 13.559,2.844 C14.130,2.435 14.622,1.925 15.012,1.343 C14.490,1.576 13.930,1.730 13.341,1.799 C13.942,1.443 14.401,0.873 14.620,0.197 C14.058,0.529 13.434,0.769 12.772,0.900 C12.243,0.338 11.485,-0.014 10.649,-0.014 C9.042,-0.014 7.741,1.283 7.741,2.883 C7.741,3.109 7.766,3.330 7.815,3.543 C5.398,3.421 3.253,2.269 1.819,0.515 C1.569,0.945 1.426,1.441 1.426,1.972 C1.426,2.978 1.939,3.865 2.720,4.384 C2.242,4.371 1.794,4.240 1.401,4.023 L1.401,4.058 C1.401,5.462 2.405,6.635 3.735,6.900 C3.492,6.968 3.234,7.002 2.969,7.002 C2.781,7.002 2.599,6.984 2.422,6.951 C2.792,8.103 3.866,8.941 5.139,8.963 C4.143,9.740 2.891,10.203 1.526,10.203 C1.291,10.203 1.061,10.191 0.833,10.164 Z"/>
</svg>